<svg width="1303" height="734" viewBox="0 0 1303 734" fill="none" xmlns="http://www.w3.org/2000/svg">
<rect width="1303" height="734" fill="white"/>
<path d="M67.8181 416V314.931H86.2993V356.947H131.636V314.931H150.117V416H131.636V371.963H86.2993V416H67.8181ZM179.29 333.268C175.921 333.268 173.13 332.257 170.916 330.236C168.799 328.215 167.74 325.664 167.74 322.584C167.74 319.503 168.799 317.001 170.916 315.076C173.13 313.054 175.921 312.044 179.29 312.044C182.659 312.044 185.403 313.054 187.52 315.076C189.734 317.001 190.841 319.503 190.841 322.584C190.841 325.664 189.734 328.215 187.52 330.236C185.403 332.257 182.659 333.268 179.29 333.268ZM170.05 416V344.386H188.531V416H170.05ZM238.142 394.631C234.676 394.631 231.452 394.246 228.468 393.476L223.126 398.818C224.762 399.685 226.976 400.407 229.767 400.984C232.559 401.562 237.083 402.139 243.339 402.717C252.869 403.583 259.799 405.845 264.131 409.503C268.462 413.16 270.628 418.214 270.628 424.663C270.628 428.898 269.473 432.893 267.163 436.647C264.853 440.497 261.291 443.577 256.478 445.887C251.666 448.294 245.505 449.497 237.997 449.497C227.794 449.497 219.564 447.572 213.308 443.722C207.051 439.968 203.923 434.289 203.923 426.684C203.923 420.235 207.051 414.652 213.308 409.936C211.382 409.07 209.698 408.155 208.254 407.193C206.907 406.23 205.703 405.219 204.645 404.161V400.84L217.206 387.556C211.623 382.647 208.832 376.343 208.832 368.642C208.832 363.829 209.987 359.45 212.297 355.503C214.703 351.557 218.072 348.428 222.404 346.118C226.735 343.808 231.981 342.653 238.142 342.653C242.184 342.653 245.938 343.23 249.404 344.386H276.548V355.647L264.275 356.514C266.2 360.172 267.163 364.214 267.163 368.642C267.163 373.455 266.008 377.834 263.698 381.781C261.387 385.727 258.018 388.856 253.591 391.166C249.259 393.476 244.109 394.631 238.142 394.631ZM238.142 380.482C241.896 380.482 244.976 379.471 247.382 377.449C249.885 375.428 251.136 372.54 251.136 368.786C251.136 365.032 249.885 362.145 247.382 360.123C244.976 358.102 241.896 357.091 238.142 357.091C234.195 357.091 231.019 358.102 228.612 360.123C226.206 362.145 225.003 365.032 225.003 368.786C225.003 372.54 226.206 375.428 228.612 377.449C231.019 379.471 234.195 380.482 238.142 380.482ZM220.816 424.807C220.816 428.369 222.452 431.016 225.725 432.749C229.094 434.577 233.184 435.492 237.997 435.492C242.618 435.492 246.371 434.529 249.259 432.604C252.147 430.775 253.591 428.273 253.591 425.096C253.591 422.497 252.628 420.332 250.703 418.599C248.874 416.866 245.168 415.807 239.585 415.422C235.639 415.134 231.981 414.701 228.612 414.123C225.821 415.663 223.799 417.348 222.548 419.176C221.393 421.005 220.816 422.882 220.816 424.807ZM290.024 416V312.044H308.505V355.359C310.912 351.412 314.136 348.332 318.179 346.118C322.318 343.808 327.034 342.653 332.328 342.653C341.184 342.653 348.018 345.444 352.831 351.027C357.74 356.61 360.195 364.792 360.195 375.572V416H341.858V377.305C341.858 371.145 340.607 366.428 338.104 363.155C335.697 359.883 331.847 358.246 326.553 358.246C321.355 358.246 317.024 360.075 313.559 363.733C310.19 367.391 308.505 372.492 308.505 379.038V416H290.024ZM377.867 416V312.044H396.348V416H377.867ZM425.194 333.268C421.826 333.268 419.034 332.257 416.82 330.236C414.703 328.215 413.644 325.664 413.644 322.584C413.644 319.503 414.703 317.001 416.82 315.076C419.034 313.054 421.826 312.044 425.194 312.044C428.563 312.044 431.307 313.054 433.424 315.076C435.638 317.001 436.745 319.503 436.745 322.584C436.745 325.664 435.638 328.215 433.424 330.236C431.307 332.257 428.563 333.268 425.194 333.268ZM415.954 416V344.386H434.435V416H415.954ZM484.046 394.631C480.58 394.631 477.356 394.246 474.372 393.476L469.03 398.818C470.666 399.685 472.88 400.407 475.671 400.984C478.463 401.562 482.987 402.139 489.243 402.717C498.773 403.583 505.703 405.845 510.035 409.503C514.366 413.16 516.532 418.214 516.532 424.663C516.532 428.898 515.377 432.893 513.067 436.647C510.757 440.497 507.195 443.577 502.382 445.887C497.57 448.294 491.409 449.497 483.901 449.497C473.698 449.497 465.468 447.572 459.212 443.722C452.955 439.968 449.827 434.289 449.827 426.684C449.827 420.235 452.955 414.652 459.212 409.936C457.286 409.07 455.602 408.155 454.158 407.193C452.811 406.23 451.607 405.219 450.549 404.161V400.84L463.11 387.556C457.527 382.647 454.736 376.343 454.736 368.642C454.736 363.829 455.891 359.45 458.201 355.503C460.607 351.557 463.976 348.428 468.308 346.118C472.639 343.808 477.885 342.653 484.046 342.653C488.088 342.653 491.842 343.23 495.308 344.386H522.452V355.647L510.179 356.514C512.104 360.172 513.067 364.214 513.067 368.642C513.067 373.455 511.912 377.834 509.602 381.781C507.291 385.727 503.922 388.856 499.495 391.166C495.163 393.476 490.013 394.631 484.046 394.631ZM484.046 380.482C487.8 380.482 490.88 379.471 493.286 377.449C495.789 375.428 497.04 372.54 497.04 368.786C497.04 365.032 495.789 362.145 493.286 360.123C490.88 358.102 487.8 357.091 484.046 357.091C480.099 357.091 476.923 358.102 474.516 360.123C472.11 362.145 470.907 365.032 470.907 368.786C470.907 372.54 472.11 375.428 474.516 377.449C476.923 379.471 480.099 380.482 484.046 380.482ZM466.72 424.807C466.72 428.369 468.356 431.016 471.629 432.749C474.998 434.577 479.088 435.492 483.901 435.492C488.522 435.492 492.275 434.529 495.163 432.604C498.051 430.775 499.495 428.273 499.495 425.096C499.495 422.497 498.532 420.332 496.607 418.599C494.778 416.866 491.072 415.807 485.489 415.422C481.543 415.134 477.885 414.701 474.516 414.123C471.725 415.663 469.703 417.348 468.452 419.176C467.297 421.005 466.72 422.882 466.72 424.807ZM535.928 416V312.044H554.409V355.359C556.816 351.412 560.04 348.332 564.083 346.118C568.222 343.808 572.938 342.653 578.232 342.653C587.088 342.653 593.922 345.444 598.735 351.027C603.644 356.61 606.099 364.792 606.099 375.572V416H587.762V377.305C587.762 371.145 586.51 366.428 584.008 363.155C581.601 359.883 577.751 358.246 572.457 358.246C567.259 358.246 562.928 360.075 559.463 363.733C556.094 367.391 554.409 372.492 554.409 379.038V416H535.928ZM655.68 416C648.172 416 642.156 414.171 637.632 410.513C633.108 406.856 630.846 400.358 630.846 391.022V359.835H618.573V344.386H630.846L633.012 325.182H649.327V344.386H668.674V359.835H649.327V391.166C649.327 394.631 650.049 397.038 651.493 398.385C653.033 399.636 655.632 400.262 659.289 400.262H668.241V416H655.68ZM714.141 417.733C707.788 417.733 702.205 416.722 697.392 414.701C692.579 412.583 688.729 409.695 685.841 406.038C682.954 402.38 681.221 398.145 680.644 393.332H699.269C699.847 396.123 701.387 398.53 703.889 400.551C706.488 402.476 709.809 403.439 713.852 403.439C717.895 403.439 720.83 402.62 722.659 400.984C724.584 399.348 725.547 397.471 725.547 395.353C725.547 392.273 724.199 390.203 721.504 389.145C718.809 387.99 715.055 386.883 710.242 385.824C707.162 385.15 704.034 384.332 700.857 383.369C697.681 382.407 694.745 381.203 692.05 379.76C689.451 378.22 687.333 376.294 685.697 373.984C684.061 371.578 683.242 368.642 683.242 365.177C683.242 358.824 685.745 353.482 690.75 349.15C695.852 344.819 702.975 342.653 712.119 342.653C720.59 342.653 727.328 344.626 732.333 348.573C737.435 352.519 740.467 357.958 741.429 364.888H723.959C722.9 359.594 718.905 356.947 711.975 356.947C708.51 356.947 705.815 357.621 703.889 358.968C702.061 360.316 701.146 362 701.146 364.022C701.146 366.139 702.542 367.824 705.333 369.075C708.125 370.327 711.831 371.482 716.451 372.54C721.456 373.695 726.028 374.995 730.167 376.439C734.403 377.786 737.772 379.856 740.274 382.647C742.777 385.342 744.028 389.241 744.028 394.342C744.124 398.77 742.969 402.765 740.563 406.326C738.157 409.888 734.691 412.679 730.167 414.701C725.643 416.722 720.301 417.733 714.141 417.733Z" fill="#FACC15"/>
<path d="M772.889 416V402.572C779.049 397.471 785.017 392.417 790.793 387.412C796.664 382.407 801.862 377.449 806.386 372.54C811.006 367.631 814.664 362.867 817.359 358.246C820.151 353.53 821.546 348.958 821.546 344.53C821.546 340.391 820.391 336.733 818.081 333.557C815.867 330.38 812.161 328.792 806.964 328.792C801.67 328.792 797.675 330.525 794.98 333.99C792.285 337.455 790.937 341.642 790.937 346.551H773.033C773.226 339.14 774.862 332.979 777.942 328.07C781.023 323.065 785.113 319.359 790.215 316.953C795.317 314.45 801.044 313.199 807.397 313.199C817.696 313.199 825.685 316.038 831.365 321.717C837.14 327.3 840.028 334.567 840.028 343.519C840.028 349.102 838.728 354.541 836.129 359.835C833.627 365.129 830.306 370.23 826.167 375.139C822.028 380.048 817.552 384.669 812.739 389C807.926 393.235 803.258 397.182 798.734 400.84H842.482V416H772.889Z" fill="#3B82F6"/>
<path d="M898.291 417.733C888.473 417.733 880.58 414.989 874.612 409.503C868.74 403.92 865.804 396.027 865.804 385.824H884.285C884.382 390.54 885.489 394.294 887.606 397.086C889.724 399.877 893.141 401.273 897.858 401.273C902.285 401.273 905.51 399.973 907.531 397.374C909.553 394.679 910.563 391.166 910.563 386.834V314.931H929.044V386.834C929.044 396.749 926.253 404.401 920.67 409.791C915.184 415.086 907.724 417.733 898.291 417.733ZM983.221 417.733C975.809 417.733 969.264 416.481 963.585 413.979C957.906 411.38 953.43 407.722 950.157 403.005C946.885 398.193 945.2 392.369 945.104 385.535H964.596C964.788 390.252 966.473 394.246 969.649 397.519C972.922 400.695 977.398 402.284 983.077 402.284C987.986 402.284 991.884 401.128 994.772 398.818C997.66 396.412 999.103 393.235 999.103 389.289C999.103 385.15 997.804 381.925 995.205 379.615C992.702 377.305 989.333 375.428 985.098 373.984C980.863 372.54 976.339 371 971.526 369.364C963.729 366.669 957.761 363.204 953.622 358.968C949.58 354.733 947.558 349.102 947.558 342.075C947.462 336.108 948.858 331.006 951.745 326.771C954.729 322.439 958.772 319.118 963.874 316.808C968.975 314.402 974.847 313.199 981.489 313.199C988.226 313.199 994.146 314.402 999.248 316.808C1004.45 319.215 1008.49 322.584 1011.38 326.915C1014.36 331.247 1015.95 336.396 1016.14 342.364H996.36C996.264 338.803 994.868 335.674 992.173 332.979C989.574 330.188 985.916 328.792 981.2 328.792C977.157 328.696 973.74 329.706 970.949 331.824C968.253 333.845 966.906 336.829 966.906 340.776C966.906 344.145 967.965 346.84 970.082 348.861C972.2 350.787 975.088 352.423 978.745 353.77C982.403 355.118 986.59 356.562 991.307 358.102C996.312 359.835 1000.88 361.856 1005.02 364.166C1009.16 366.476 1012.48 369.556 1014.99 373.407C1017.49 377.161 1018.74 382.022 1018.74 387.99C1018.74 393.284 1017.39 398.193 1014.7 402.717C1012 407.241 1008.01 410.898 1002.71 413.69C997.419 416.385 990.922 417.733 983.221 417.733ZM1082.22 417.733C1072.12 417.733 1063.26 415.519 1055.66 411.091C1048.15 406.663 1042.23 400.551 1037.9 392.754C1033.66 384.861 1031.54 375.765 1031.54 365.466C1031.54 355.166 1033.66 346.118 1037.9 338.321C1042.23 330.428 1048.15 324.268 1055.66 319.84C1063.26 315.412 1072.12 313.199 1082.22 313.199C1092.23 313.199 1101.04 315.412 1108.64 319.84C1116.25 324.268 1122.17 330.428 1126.4 338.321C1130.64 346.118 1132.76 355.166 1132.76 365.466C1132.76 375.765 1130.64 384.861 1126.4 392.754C1122.17 400.551 1116.25 406.663 1108.64 411.091C1101.04 415.519 1092.23 417.733 1082.22 417.733ZM1082.22 401.128C1091.85 401.128 1099.5 397.952 1105.18 391.599C1110.95 385.246 1113.84 376.535 1113.84 365.466C1113.84 354.396 1110.95 345.685 1105.18 339.332C1099.5 332.979 1091.85 329.803 1082.22 329.803C1072.6 329.803 1064.9 332.979 1059.12 339.332C1053.35 345.685 1050.46 354.396 1050.46 365.466C1050.46 376.535 1053.35 385.246 1059.12 391.599C1064.9 397.952 1072.6 401.128 1082.22 401.128ZM1149.07 416V314.931H1167.56L1215.06 386.113V314.931H1233.54V416H1215.06L1167.56 344.963V416H1149.07Z" fill="#22C55E"/>
</svg>
