<svg width="36" height="36" viewBox="0 0 36 36" fill="none" xmlns="http://www.w3.org/2000/svg">
<g clip-path="url(#clip0_8_2)">
<path d="M36 32C36 34.209 34.209 36 32 36H4C1.791 36 0 34.209 0 32V4C0 1.791 1.791 0 4 0H32C34.209 0 36 1.791 36 4V32Z" fill="#00A6ED"/>
<path d="M12.953 15.717C13.502 14.323 14.187 12.856 15.128 11.575C13.95 10.064 12.351 9 10 9H7V13H10C11.307 13 12.119 13.896 12.953 15.717ZM19.48 21.141C19.002 22.455 18.421 23.918 17.628 25.273C18.718 26.318 20.117 27 22 27H25V23H22C20.918 23 20.178 22.38 19.48 21.141V21.141Z" fill="white"/>
<path d="M10 27H7V23H10C11.884 23 12.739 21.184 14.117 17.327C15.441 13.617 17.09 9 22 9H25V13H22C20.115 13 19.261 14.817 17.883 18.673C16.559 22.383 14.91 27 10 27Z" fill="white"/>
<path d="M30.2 11L23 5V17L30.2 11ZM30.2 25L23 19V31L30.2 25Z" fill="white"/>
</g>
<defs>
<clipPath id="clip0_8_2">
<rect width="36" height="36" fill="white"/>
</clipPath>
</defs>
</svg>
